<?xml version="1.0" standalone="no"?>
<!DOCTYPE svg PUBLIC "-//W3C//DTD SVG 20010904//EN"
 "http://www.w3.org/TR/2001/REC-SVG-20010904/DTD/svg10.dtd">
<svg version="1.0" xmlns="http://www.w3.org/2000/svg"
 width="16.000000pt" height="16.000000pt" viewBox="0 0 16.000000 16.000000"
 preserveAspectRatio="xMidYMid meet">
<metadata>
Created by potrace 1.11, written by Peter Selinger 2001-2013
</metadata>
<g transform="translate(0.000000,16.000000) scale(0.007960,-0.007960)"
fill="#000000" stroke="none">
<path d="M1828 2005 c-2 -2 -46 -6 -98 -9 -52 -3 -115 -8 -140 -10 -25 -3 -88
-8 -140 -11 -108 -7 -178 -12 -265 -20 -33 -3 -96 -7 -140 -10 -44 -3 -107 -7
-140 -10 -33 -3 -94 -7 -135 -10 -41 -3 -102 -8 -135 -10 -33 -3 -97 -7 -143
-10 -46 -3 -104 -7 -130 -10 -26 -2 -92 -7 -147 -11 -55 -4 -113 -8 -130 -9
-16 -2 -43 -4 -58 -4 l-29 -1 6 -57 c3 -32 8 -89 11 -128 13 -192 16 -233 20
-275 3 -25 7 -83 10 -130 3 -47 7 -112 10 -145 6 -67 12 -151 20 -270 3 -44 8
-107 10 -140 2 -33 7 -96 10 -140 3 -44 8 -107 10 -140 7 -81 14 -167 21 -278
4 -51 7 -101 9 -112 1 -11 3 -28 4 -38 1 -15 8 -17 59 -12 31 2 91 7 132 10
41 3 100 7 130 10 30 2 93 7 140 10 47 3 105 8 130 10 25 2 88 7 140 10 52 4
111 8 130 10 44 4 192 15 285 21 39 2 95 6 125 9 30 2 93 7 140 10 47 3 105 8
130 10 25 3 88 8 140 11 86 6 151 11 173 13 5 1 6 36 3 79 -4 42 -9 109 -11
147 -6 91 -15 206 -20 275 -2 30 -7 93 -10 140 -3 47 -8 108 -10 135 -2 28 -7
91 -10 140 -8 120 -13 175 -20 265 -3 41 -8 102 -10 135 -2 33 -7 94 -10 135
-4 41 -8 102 -10 135 -5 87 -17 247 -20 264 -1 13 -28 24 -37 16z"/>
</g>
</svg>
